<svg xmlns="http://www.w3.org/2000/svg" viewBox="0 0 20 20" width="128" height="128" shape-rendering="crispEdges"><rect x="6" y="4" width="1" height="1" fill="#a7e2d1"/><rect x="7" y="4" width="6" height="1" fill="#10a37f"/><rect x="13" y="4" width="1" height="1" fill="#a7e2d1"/><rect x="5" y="5" width="1" height="1" fill="#a7e2d1"/><rect x="6" y="5" width="8" height="1" fill="#10a37f"/><rect x="14" y="5" width="1" height="1" fill="#a7e2d1"/><rect x="5" y="6" width="10" height="1" fill="#10a37f"/><rect x="5" y="7" width="10" height="1" fill="#10a37f"/><rect x="4" y="8" width="12" height="1" fill="#10a37f"/><rect x="4" y="9" width="12" height="1" fill="#10a37f"/><rect x="5" y="10" width="10" height="1" fill="#10a37f"/><rect x="6" y="11" width="8" height="1" fill="#10a37f"/><rect x="4" y="12" width="1" height="1" fill="#10a37f"/><rect x="6" y="12" width="1" height="1" fill="#10a37f"/><rect x="8" y="12" width="1" height="1" fill="#10a37f"/><rect x="11" y="12" width="1" height="1" fill="#10a37f"/><rect x="13" y="12" width="1" height="1" fill="#10a37f"/><rect x="15" y="12" width="1" height="1" fill="#10a37f"/><rect x="4" y="13" width="1" height="1" fill="#10a37f"/><rect x="6" y="13" width="1" height="1" fill="#10a37f"/><rect x="8" y="13" width="1" height="1" fill="#10a37f"/><rect x="11" y="13" width="1" height="1" fill="#10a37f"/><rect x="13" y="13" width="1" height="1" fill="#10a37f"/><rect x="15" y="13" width="1" height="1" fill="#10a37f"/><rect x="8" y="9" width="5" height="2" fill="#f7faf8"/><rect x="9" y="11" width="1" height="1" fill="#f7faf8"/><rect x="9" y="9" width="1" height="1" fill="#10a37f"/><rect x="11" y="9" width="1" height="1" fill="#10a37f"/><g opacity="1"><animate attributeName="opacity" values="1;0;0;0;0;0;0;0" dur="3.2s" begin="0s" calcMode="discrete" repeatCount="indefinite"/><rect x="7" y="6" width="1" height="2" fill="#073d35"/><rect x="12" y="6" width="1" height="2" fill="#073d35"/></g><g opacity="0"><animate attributeName="opacity" values="0;1;0;0;0;0;0;0" dur="3.2s" begin="0s" calcMode="discrete" repeatCount="indefinite"/><rect x="7" y="6" width="1" height="2" fill="#073d35"/><rect x="12" y="6" width="1" height="2" fill="#073d35"/></g><g opacity="0"><animate attributeName="opacity" values="0;0;1;0;0;0;0;0" dur="3.2s" begin="0s" calcMode="discrete" repeatCount="indefinite"/><rect x="7" y="6" width="1" height="2" fill="#073d35"/><rect x="12" y="6" width="1" height="2" fill="#073d35"/></g><g opacity="0"><animate attributeName="opacity" values="0;0;0;1;0;0;0;0" dur="3.2s" begin="0s" calcMode="discrete" repeatCount="indefinite"/><rect x="7" y="6" width="1" height="2" fill="#073d35"/><rect x="12" y="6" width="1" height="2" fill="#073d35"/></g><g opacity="0"><animate attributeName="opacity" values="0;0;0;0;1;0;0;0" dur="3.2s" begin="0s" calcMode="discrete" repeatCount="indefinite"/><rect x="7" y="6" width="1" height="2" fill="#073d35"/><rect x="12" y="6" width="1" height="2" fill="#073d35"/></g><g opacity="0"><animate attributeName="opacity" values="0;0;0;0;0;1;0;0" dur="3.2s" begin="0s" calcMode="discrete" repeatCount="indefinite"/><rect x="7" y="6" width="1" height="2" fill="#073d35"/><rect x="12" y="6" width="1" height="2" fill="#073d35"/></g><g opacity="0"><animate attributeName="opacity" values="0;0;0;0;0;0;1;0" dur="3.2s" begin="0s" calcMode="discrete" repeatCount="indefinite"/><rect x="7" y="6" width="1" height="2" fill="#073d35"/><rect x="12" y="6" width="1" height="2" fill="#073d35"/></g><g opacity="0"><animate attributeName="opacity" values="0;0;0;0;0;0;0;1" dur="3.2s" begin="0s" calcMode="discrete" repeatCount="indefinite"/><rect x="6" y="7" width="2" height="1" fill="#073d35"/><rect x="12" y="7" width="2" height="1" fill="#073d35"/></g></svg>